<svg xmlns="http://www.w3.org/2000/svg" viewBox="0 0 735.93 702.95"><defs><style>.cls-1{fill:#fff;}</style></defs><g id="Warstwa_2" data-name="Warstwa 2"><g id="Warstwa_1-2" data-name="Warstwa 1"><path class="cls-1" d="M500.42,478.9c-2.86,7-4.86,12.41-7.3,17.67-40.51,87.3-108.78,134.58-205,137.56-89,2.76-171.18-51.8-207.34-133.88-14.23-32.32-14.28-32.37,12.3-55.09,36.73-31.41,73.54-62.73,111-94.66,4.41,3.59,8.3,6.65,12.06,9.85q63,53.76,126.07,107.51c3.74,3.17,8.1,7.69,12.33,7.86,20.2.83,40.45.37,63.94.37-6.24-5.66-9.78-9-13.5-12.2-29.18-24.88-58.18-50-87.73-74.38a32,32,0,0,1-8.21-9.56V326.71l16.56-24.45H256.5l16.17,26.12V351l-68-57.88c-2.75,2-4.28,3-5.66,4.16C134.69,352,70.51,406.9,5.89,461.26c-7.28,6.13-6.47,11.89-4.61,19.22,43.28,170.67,224.5,265.66,388.84,203.19,72.27-27.47,125.39-76.78,159.79-146,2.16-4.34,3.31-12.91.87-15.2C534.94,507.55,518,493.83,500.42,478.9Z"/><path class="cls-1" d="M734.65,222.47C691.37,51.8,510.14-43.19,345.81,19.28,273.54,46.75,220.42,96.06,186,165.28c-2.16,4.34-3.31,12.91-.88,15.2C201,195.4,218,209.12,235.5,224.05c2.86-7,4.87-12.41,7.31-17.67,40.51-87.3,108.77-134.58,205-137.56,89-2.76,171.19,51.8,207.34,133.88,14.24,32.32,14.28,32.37-12.29,55.09-36.74,31.41-73.55,62.73-111,94.66-4.41-3.59-8.29-6.65-12.05-9.85q-63-53.76-126.07-107.51c-3.74-3.17-8.11-7.69-12.33-7.86-20.2-.83-40.46-.37-63.95-.37,6.25,5.66,9.79,9,13.5,12.2,29.18,24.87,58.18,50,87.74,74.38,7.85,6.48,89.9,77,112.59,96.35,2.75-2,4.29-3,5.67-4.16C601.24,350.92,665.42,296.05,730,241.69,737.32,235.56,736.5,229.8,734.65,222.47Z"/><rect class="cls-1" x="156.51" y="440.82" width="33.89" height="33.89"/><rect class="cls-1" x="215.81" y="440.82" width="33.89" height="33.89"/><rect class="cls-1" x="156.51" y="498.05" width="33.89" height="33.89"/><rect class="cls-1" x="215.81" y="498.05" width="33.89" height="33.89"/><rect class="cls-1" x="486.13" y="181.89" width="33.89" height="33.89"/><rect class="cls-1" x="545.43" y="181.89" width="33.89" height="33.89"/><rect class="cls-1" x="486.13" y="239.12" width="33.89" height="33.89"/><rect class="cls-1" x="545.43" y="239.12" width="33.89" height="33.89"/></g></g></svg>